<svg width="1610" height="394" viewBox="0 0 1610 394" fill="none" xmlns="http://www.w3.org/2000/svg">
<path d="M139.345 0V18.1127C139.345 18.1127 129.286 21.5654 125.832 23.7302C108.291 34.8006 106.811 49.3237 106.153 69.4368V184.169H294.641V64.8332C294.312 46.282 292.256 34.4718 271.508 21.6202C268.247 19.5925 261.422 17.9209 261.422 17.9209V0H397.203V17.6195C397.203 17.6195 385.61 21.3462 381.581 24.3878C368.945 33.8963 367.081 49.3511 366.753 64.9702L366.122 332.25C366.615 346.417 375.194 371.325 392.407 377.079C394.243 377.71 400.246 379.436 400.246 379.436V393H261.34V378.45C283.513 375.901 294.751 358.282 294.641 332.25V220.888H106.153V320.741C106.564 328.989 107.386 342.745 110.456 350.965C114.759 362.584 123.804 377.819 139.235 378.34V393.027H0V379.052C18.1992 375.874 28.0388 360.309 31.9583 345.238C34.5347 335.319 34.3154 331.455 34.5072 320.741C35.8229 244.645 34.3154 153.534 34.3154 69.4642C34.3428 46.0354 24.7224 21.4558 0.931887 18.4416V0H139.345Z" fill="#FDF9F3"/>
<path d="M687.733 393C684.828 392.205 687.295 380.751 686.801 378.313C740.549 378.45 715.361 332.798 704.233 304.601L542.633 304.217L540.33 304.985C534.301 322.796 513.47 357.076 535.698 372.668C542.934 377.737 550.033 377.244 558.31 378.97L558.173 393H428.997L428.915 378.422C461.613 376.531 480.854 351.541 492.009 326.468C516.485 271.445 538.357 207.269 560.147 145.779C569.329 119.857 580.456 91.6598 588.268 64.477C591.913 51.7624 598.053 30.2244 581.772 22.086C575.276 18.8252 563.189 18.5512 563.189 18.5512V0H723.474V18.4142C723.474 18.4142 714.593 19.154 711.195 19.7569C685.266 24.4152 694.722 53.4066 699.848 70.3958C720.568 139.175 746.278 207.707 769.547 270.02C782.32 304.217 797.367 363.981 837.712 376.038C843.249 377.71 849.416 377.326 854.376 379.381L854.157 391.959L852.979 393H687.788H687.733ZM690.035 268.54L624.282 78.6986L556.008 268.54H690.008H690.035Z" fill="#FDF9F3"/>
<path d="M1478.93 0L1478.85 17.9483C1478.85 17.9483 1469.34 19.1814 1466.96 19.5651C1446.34 23.1273 1447.71 42.7746 1450.7 56.0098C1457.55 86.3164 1471.67 120.569 1481.45 149.04C1502.04 208.941 1522.46 269.937 1545.21 323.782C1556.31 350.034 1573.93 376.696 1609.51 378.614C1610.03 378.998 1610.11 390.643 1609.89 391.411C1609.64 392.288 1609.29 392.507 1608.44 393H1442.07L1442.18 378.998C1443.27 377.929 1451.99 377.819 1454.18 377.436C1495.24 370.229 1465.2 323.18 1460.24 305.423L1457.8 304.19L1296.12 304.546C1288.86 323.289 1274.14 349.239 1284.77 366.119C1290.66 375.435 1301.49 377.984 1313.61 378.395V392.973H1184.84L1183.94 391.822V378.313C1215.89 377.6 1236.83 350.828 1247.82 325.618C1275.89 261.333 1301.82 185.786 1326.54 113.965C1332.24 97.3868 1339.64 78.8357 1344.36 62.0108C1348.69 46.6109 1351.68 27.9775 1335.31 21.3462C1329.17 18.8526 1317.99 18.1127 1317.99 18.1127L1318.21 0H1478.93ZM1445.22 268.54L1379.14 77.8492L1311.19 268.54H1445.19H1445.22Z" fill="#FDF9F3"/>
<path d="M1024.5 0V18.9622C1002.6 18.9622 987.39 42.4184 987.39 59.7638V360.693H1079.78C1109.55 359.076 1135.12 341.457 1148.66 316.713C1152.33 309.999 1154.61 302.738 1158.2 296.134H1179.61L1155.54 392.973H877.592L877.208 378.34C892.968 377.573 902.999 362.392 906.836 349.979C912.51 331.674 913.14 311.89 913.25 292.846V59.7638C913.25 40.6372 906.864 26.3882 888.856 20.6885C883.978 19.1266 877.18 18.0305 877.18 18.0305V0H1024.5Z" fill="#FDF9F3"/>
</svg>
